<?xml version="1.0" encoding="utf-8"?>
<!-- Generator: Adobe Illustrator 24.0.1, SVG Export Plug-In . SVG Version: 6.00 Build 0)  -->
<svg version="1.1" id="圖層_1" xmlns="http://www.w3.org/2000/svg" xmlns:xlink="http://www.w3.org/1999/xlink" x="0px" y="0px"
	 viewBox="0 0 24 24" style="enable-background:new 0 0 24 24;" xml:space="preserve">
<style type="text/css">
	.st0{fill:#FFFFFF;}
</style>
<title>Line icon</title>
<path class="st0" d="M19.4,9.9c0.3,0,0.6,0.3,0.6,0.6c0,0.3-0.3,0.6-0.6,0.6h-1.8v1.1h1.8c0.3,0,0.6,0.3,0.6,0.6
	c0,0.3-0.3,0.6-0.6,0.6H17c-0.3,0-0.6-0.3-0.6-0.6V8.1c0-0.3,0.3-0.6,0.6-0.6h2.4c0.3,0,0.6,0.3,0.6,0.6c0,0.3-0.3,0.6-0.6,0.6h-1.8
	v1.1H19.4z M15.5,12.9c0,0.3-0.2,0.5-0.4,0.6c-0.1,0-0.1,0-0.2,0c-0.2,0-0.4-0.1-0.5-0.3l-2.4-3.3v2.9c0,0.3-0.3,0.6-0.6,0.6
	c-0.3,0-0.6-0.3-0.6-0.6V8.1c0-0.3,0.2-0.5,0.4-0.6c0.1,0,0.1,0,0.2,0c0.2,0,0.4,0.1,0.5,0.3l2.5,3.3v-3c0-0.3,0.3-0.6,0.6-0.6
	c0.3,0,0.6,0.3,0.6,0.6V12.9z M9.8,12.9c0,0.3-0.3,0.6-0.6,0.6c-0.3,0-0.6-0.3-0.6-0.6V8.1c0-0.3,0.3-0.6,0.6-0.6
	c0.3,0,0.6,0.3,0.6,0.6C9.8,8.1,9.8,12.9,9.8,12.9z M7.3,13.5H4.9c-0.3,0-0.6-0.3-0.6-0.6V8.1c0-0.3,0.3-0.6,0.6-0.6
	c0.3,0,0.6,0.3,0.6,0.6v4.1h1.8c0.3,0,0.6,0.3,0.6,0.6C7.9,13.2,7.7,13.5,7.3,13.5 M24,10.3c0-5.4-5.4-9.7-12-9.7S0,4.9,0,10.3
	c0,4.8,4.3,8.8,10,9.6c0.4,0.1,0.9,0.3,1.1,0.6c0.1,0.3,0.1,0.8,0,1.1l-0.2,1c0,0.3-0.2,1.2,1,0.6c1.3-0.5,6.9-4.1,9.4-7
	C23.2,14.4,24,12.5,24,10.3"/>
</svg>
